<svg version="1.1" id="Layer_1" xmlns="http://www.w3.org/2000/svg" xmlns:xlink="http://www.w3.org/1999/xlink" x="0px" y="0px"
	 width="100%" viewBox="0 0 1024 544" enable-background="new 0 0 1024 544" xml:space="preserve">
<path fill="#000000" opacity="1.000000" stroke="none" 
	d="
M305.426727,376.589722 
	C445.028229,376.597046 584.173401,376.604675 723.318604,376.615662 
	C729.975647,376.616211 730.140137,376.691071 730.104553,383.221527 
	C730.026733,397.504913 731.855286,395.919037 717.791565,395.923065 
	C580.312866,395.962311 442.834198,395.954620 305.355499,395.958679 
	C297.638031,395.958923 297.625458,395.952301 297.629089,388.316132 
	C297.630585,385.151459 297.682861,381.986450 297.753479,378.822510 
	C297.764221,378.341919 298.001007,377.866364 298.138672,377.368866 
	C300.300446,375.970276 302.696472,376.793823 305.426727,376.589722 
z"/>
<path fill="#000000" opacity="1.000000" stroke="none" 
	d="
M523.401123,335.485962 
	C497.268982,283.984558 471.632751,232.652939 446.706635,181.250992 
	C448.386749,179.330215 449.979095,179.737976 451.395599,179.731781 
	C462.060730,179.685150 472.727875,179.811523 483.390411,179.637650 
	C486.901123,179.580383 488.850494,180.976807 490.369843,184.029282 
	C514.939514,233.390228 539.578369,282.716766 564.211243,332.046234 
	C569.122742,341.881897 574.088318,351.690613 578.994263,361.529022 
	C579.800598,363.146118 580.909424,364.678436 580.874573,366.631042 
	C579.515686,368.358246 577.564941,367.977692 575.794250,367.984375 
	C565.295837,368.023834 554.795349,367.886169 544.299805,368.063110 
	C540.958252,368.119446 539.132141,366.804474 537.718506,363.922455 
	C533.099854,354.506042 528.302612,345.177155 523.401123,335.485962 
z"/>
<path fill="#000000" opacity="1.000000" stroke="none" 
	d="
M580.979004,260.000000 
	C580.978699,289.003235 580.978699,317.506500 580.978699,346.244141 
	C577.944824,345.696594 577.747375,343.743042 577.087219,342.398956 
	C565.063599,317.918793 553.131287,293.393829 541.145020,268.895294 
	C539.724731,265.992249 539.031982,263.012848 539.037598,259.765594 
	C539.079712,235.464310 539.028748,211.162827 539.057861,186.861481 
	C539.066406,179.725021 539.141418,179.713989 546.325256,179.704208 
	C555.479919,179.691742 564.634583,179.690231 573.789246,179.701645 
	C580.770386,179.710327 580.957703,179.853653 580.966553,187.095184 
	C580.996094,211.230103 580.978638,235.365051 580.979004,260.000000 
z"/>
<path fill="#000000" opacity="1.000000" stroke="none" 
	d="
M698.739990,302.400757 
	C700.625061,311.613861 702.286743,320.443268 704.207886,329.215851 
	C705.030518,332.972015 704.442566,334.956940 700.137817,335.762115 
	C689.838928,337.688416 679.619690,340.054169 669.399536,342.379852 
	C665.866211,343.183868 664.176758,342.682404 663.353638,338.502960 
	C656.314148,302.758026 648.999146,267.067291 641.745789,231.364594 
	C638.873230,217.225311 638.864685,217.307663 653.161987,214.488953 
	C660.507629,213.040756 667.815430,211.371719 675.084473,209.576370 
	C678.391602,208.759567 679.891541,209.503189 680.591980,213.037476 
	C684.696289,233.745743 689.009888,254.412460 693.228699,275.098114 
	C695.056030,284.057404 696.825806,293.028412 698.739990,302.400757 
z"/>
<path fill="#000000" opacity="1.000000" stroke="none" 
	d="
M358.775269,211.075775 
	C366.841278,212.790482 374.493103,214.416687 382.148590,216.025238 
	C388.146362,217.285492 388.244904,217.454132 386.973328,223.675278 
	C383.741699,239.486160 380.488800,255.292877 377.316620,271.115723 
	C372.904236,293.124573 368.568420,315.148773 364.164368,337.159271 
	C363.780121,339.079803 363.132355,340.947571 362.465027,343.351257 
	C354.793671,341.665070 347.523590,340.074097 340.257019,338.467285 
	C335.709381,337.461700 331.201752,336.215179 326.611481,335.481384 
	C322.866577,334.882690 322.023560,333.064667 322.741119,329.606323 
	C324.834747,319.515717 326.705414,309.379089 328.760895,299.280334 
	C334.297638,272.078033 339.834320,244.875504 345.481171,217.695953 
	C347.334595,208.774902 347.488831,208.808456 356.392181,210.642273 
	C357.044525,210.776627 357.705627,210.868225 358.775269,211.075775 
z"/>
<path fill="#000000" opacity="1.000000" stroke="none" 
	d="
M464.809998,234.269867 
	C471.861053,248.657593 478.705994,262.730865 485.623932,276.768219 
	C487.425018,280.422791 488.350281,284.146149 488.334137,288.279755 
	C488.238495,312.776398 488.190674,337.274689 488.411163,361.769897 
	C488.454529,366.592865 486.919891,368.193207 482.148743,368.067200 
	C471.990509,367.798920 461.820007,367.963196 451.654816,368.011902 
	C448.577545,368.026642 446.644684,367.333405 446.650726,363.575287 
	C446.736237,310.248627 446.724365,256.921783 446.750458,203.595001 
	C446.750763,202.952728 446.940521,202.310532 447.643280,201.405548 
	C454.323151,211.736603 458.956573,223.120560 464.809998,234.269867 
z"/>
<path fill="#000000" opacity="1.000000" stroke="none" 
	d="
M438.369446,309.000122 
	C438.363495,318.986633 438.323761,328.473297 438.372375,337.959503 
	C438.386108,340.640015 437.831787,342.428497 434.576416,342.427155 
	C423.933044,342.422821 413.288208,342.490662 402.646942,342.691071 
	C398.219177,342.774475 396.693115,341.105103 396.709351,336.506836 
	C396.855316,295.066315 396.817444,253.624771 396.673431,212.184097 
	C396.657806,207.694702 398.113495,205.858368 402.671112,205.940247 
	C412.820221,206.122574 422.977203,206.146561 433.125641,205.953430 
	C437.391174,205.872238 438.450867,207.693161 438.437225,211.637665 
	C438.325592,243.924835 438.371246,276.212555 438.369446,309.000122 
M407.245819,235.503723 
	C407.240204,262.658966 407.229919,289.814178 407.230865,316.969421 
	C407.231384,331.132996 407.242554,330.935242 421.549408,331.096893 
	C426.600952,331.153961 428.164093,329.521362 428.128448,324.508453 
	C427.931854,296.854828 428.028778,269.199127 428.026398,241.544128 
	C428.025848,235.380219 427.994324,229.215988 428.047943,223.052521 
	C428.076660,219.749130 426.702179,218.136612 423.246674,218.274033 
	C419.420837,218.426147 415.584930,218.304688 411.754089,218.355896 
	C408.730347,218.396286 407.169250,219.851318 407.235809,223.011810 
	C407.316467,226.841751 407.250183,230.674805 407.245819,235.503723 
z"/>
<path fill="#000000" opacity="1.000000" stroke="none" 
	d="
M588.879639,297.000000 
	C588.904053,268.850220 588.909668,241.200394 588.968079,213.550690 
	C588.983521,206.238022 589.249756,206.038208 596.602905,206.033646 
	C605.930542,206.027847 615.260010,206.155960 624.584900,205.997971 
	C628.713257,205.928040 630.502075,207.153351 630.486938,211.685455 
	C630.347229,253.492737 630.378784,295.300751 630.452454,337.108337 
	C630.458862,340.749695 629.610901,342.551392 625.455566,342.504547 
	C615.137268,342.388184 604.813232,342.657013 594.493286,342.861877 
	C590.357422,342.944000 588.656250,341.463562 588.756897,336.973724 
	C589.051819,323.821503 588.873474,310.658661 588.879639,297.000000 
M620.370544,220.342072 
	C619.547913,218.063431 617.565918,218.324829 615.767517,218.298828 
	C612.440369,218.250717 609.112183,218.265961 605.784485,218.275528 
	C599.414673,218.293854 599.287231,218.406708 599.285278,224.649567 
	C599.279053,244.616196 599.289490,264.582825 599.290344,284.549438 
	C599.290894,298.359680 599.369507,312.170807 599.228149,325.979614 
	C599.190918,329.616302 600.454834,331.179810 604.137268,331.010345 
	C607.790161,330.842255 611.466187,330.803619 615.114624,331.012115 
	C619.183350,331.244537 620.696838,329.658203 620.680542,325.514435 
	C620.543457,290.740387 620.561462,255.965714 620.370544,220.342072 
z"/>
<path fill="#000000" opacity="1.000000" stroke="none" 
	d="
M349.217590,198.384247 
	C350.004974,194.723724 350.674896,191.470688 351.361053,188.221054 
	C352.132751,184.566116 354.545197,183.259552 358.000488,183.951813 
	C367.937531,185.942688 377.859924,188.009781 387.769440,190.133667 
	C391.004852,190.827103 392.548279,192.947754 392.173401,196.319580 
	C392.118256,196.815262 392.039032,197.308563 391.960358,197.801270 
	C389.791962,211.382462 389.786560,211.407104 376.439941,208.594803 
	C368.477081,206.916916 360.544769,205.092972 352.575226,203.448532 
	C349.888550,202.894165 348.162781,201.914276 349.217590,198.384247 
z"/>
<path fill="#000000" opacity="1.000000" stroke="none" 
	d="
M675.256226,186.964417 
	C675.748047,188.967529 676.163635,190.569550 676.481506,192.190704 
	C678.597717,202.980865 678.586182,202.958694 667.683350,205.166855 
	C659.067200,206.911880 650.434204,208.592102 641.872375,210.576141 
	C638.791016,211.290192 637.578552,210.262558 637.062256,207.452438 
	C636.432800,204.026352 635.626526,200.632675 635.001953,197.205780 
	C634.275879,193.222321 635.949585,190.864288 639.955994,190.049484 
	C649.218933,188.165634 658.472473,186.234955 667.719360,184.273788 
	C670.661438,183.649811 673.363953,183.539658 675.256226,186.964417 
z"/>
<path fill="#000000" opacity="1.000000" stroke="none" 
	d="
M686.015259,344.848572 
	C691.792969,343.611084 697.190125,342.580414 702.502136,341.217834 
	C705.581909,340.427795 706.794067,341.598022 707.304443,344.426453 
	C710.297546,361.016479 711.934814,359.607880 695.289307,363.283844 
	C688.789856,364.719177 682.274658,366.089752 675.802368,367.639465 
	C671.751221,368.609436 669.548340,367.079254 668.302856,363.221680 
	C663.923584,349.658142 663.944214,349.559540 677.814819,346.661652 
	C680.417480,346.117889 683.004700,345.499817 686.015259,344.848572 
z"/>
<path fill="#000000" opacity="1.000000" stroke="none" 
	d="
M397.395416,182.799088 
	C399.131775,179.971146 401.558258,179.675079 404.136780,179.679382 
	C413.286926,179.694611 422.437653,179.625885 431.587006,179.710861 
	C436.905518,179.760269 438.387695,181.223755 438.346985,186.637604 
	C438.224457,202.927643 440.554504,199.901642 425.162445,200.166306 
	C417.511871,200.297867 409.853119,200.037415 402.205841,200.243591 
	C398.049835,200.355652 396.450439,198.719849 396.770477,194.646667 
	C397.069305,190.843872 397.081757,187.018570 397.395416,182.799088 
z"/>
<path fill="#000000" opacity="1.000000" stroke="none" 
	d="
M606.004211,200.149902 
	C601.352661,200.142029 597.199951,200.117737 593.047302,200.132996 
	C590.393127,200.142746 589.051758,198.853378 588.991211,196.209045 
	C588.979797,195.710968 588.958252,195.213074 588.938843,194.715210 
	C588.358337,179.854996 588.518372,179.688049 603.359436,179.693344 
	C610.169983,179.695770 616.980835,179.743317 623.790894,179.686386 
	C628.294922,179.648743 630.504822,181.544891 630.403015,186.277664 
	C630.044556,202.938278 632.581543,199.826523 616.967834,200.146881 
	C613.481018,200.218430 609.991394,200.152740 606.004211,200.149902 
z"/>
<path fill="#000000" opacity="1.000000" stroke="none" 
	d="
M338.546387,344.295349 
	C345.289093,345.781311 351.603210,347.275024 357.970947,348.487244 
	C360.751190,349.016571 361.633118,350.277893 361.020050,352.960876 
	C360.279541,356.201324 359.787201,359.499481 359.014587,362.731323 
	C358.044952,366.787231 355.552582,368.611053 351.282440,367.641724 
	C341.715240,365.469879 332.136810,363.347565 322.564850,361.196594 
	C318.571533,360.299194 317.120514,357.731750 317.765350,353.811188 
	C317.792358,353.647064 317.820251,353.483063 317.846741,353.318848 
	C319.972229,340.154938 319.972504,340.153625 332.789764,342.977509 
	C334.575348,343.370911 336.356415,343.784546 338.546387,344.295349 
z"/>
<path fill="#000000" opacity="1.000000" stroke="none" 
	d="
M588.982117,352.285522 
	C589.163025,349.163910 590.902100,348.665070 593.138428,348.670166 
	C604.268555,348.695557 615.398926,348.717560 626.528809,348.656189 
	C629.262451,348.641113 630.481445,349.750580 630.374512,352.502350 
	C630.284424,354.823944 630.391785,357.152802 630.394714,359.478455 
	C630.403809,366.677704 629.197815,367.992371 622.151855,368.044983 
	C614.012329,368.105743 605.871460,368.092712 597.731934,368.018921 
	C590.464111,367.953033 588.933594,366.381409 588.893250,359.228546 
	C588.881042,357.069275 588.929626,354.909698 588.982117,352.285522 
z"/>
<path fill="#000000" opacity="1.000000" stroke="none" 
	d="
M396.846985,355.072479 
	C396.277496,350.118317 398.063141,348.435242 402.726990,348.573883 
	C412.862061,348.875092 423.014404,348.784698 433.155304,348.605621 
	C436.910309,348.539307 438.402252,349.595062 438.452026,353.643646 
	C438.628784,368.028992 438.773926,368.028442 424.370331,368.044159 
	C418.383667,368.050690 412.396820,368.085114 406.410431,368.045349 
	C398.088013,367.990051 396.822937,366.708618 396.831726,358.536987 
	C396.832794,357.539215 396.839905,356.541443 396.846985,355.072479 
z"/>
</svg>