<?xml version="1.0" standalone="no"?>
<!DOCTYPE svg PUBLIC "-//W3C//DTD SVG 20010904//EN"
 "http://www.w3.org/TR/2001/REC-SVG-20010904/DTD/svg10.dtd">
<svg version="1.0" xmlns="http://www.w3.org/2000/svg"
 width="289.000000pt" height="149.000000pt" viewBox="0 0 289.000000 149.000000"
 preserveAspectRatio="xMidYMid meet">

<g transform="translate(0.000000,149.000000) scale(0.100000,-0.100000)"
fill="#000000" stroke="none">
<path d="M940 1276 l0 -73 -42 8 c-24 4 -61 8 -83 9 l-40 0 3 -494 2 -493 138
-1 c170 0 290 -28 419 -97 47 -25 94 -45 104 -45 10 0 47 15 81 34 146 80 265
109 451 108 l137 0 0 494 -1 494 -37 0 c-63 0 -82 -9 -82 -39 0 -25 3 -27 30
-23 l30 4 0 -436 0 -436 -102 0 c-109 0 -232 -22 -327 -59 -30 -11 -57 -19
-59 -17 -8 8 114 96 175 126 35 17 95 39 133 48 l70 17 0 473 0 472 -22 0
c-51 0 -158 -33 -243 -75 -86 -42 -174 -113 -218 -176 l-17 -23 -17 24 c-62
94 -219 194 -359 230 -126 32 -124 33 -124 -54z m940 -404 l0 -419 -82 -27
c-102 -33 -182 -81 -264 -159 l-64 -59 0 178 -1 179 -29 35 -29 35 -1 -214 0
-213 -65 60 c-79 75 -177 133 -272 163 l-73 23 0 413 c0 466 -8 427 81 399
119 -36 233 -114 295 -201 31 -44 34 -55 34 -119 1 -64 4 -74 30 -106 l30 -34
0 105 c0 101 1 108 28 145 72 99 200 183 329 219 26 7 49 14 51 14 1 1 2 -187
2 -417z m-978 282 l38 -7 2 -371 3 -371 50 -11 c69 -16 121 -36 183 -71 53
-29 146 -102 140 -109 -3 -2 -29 6 -59 18 -98 38 -208 57 -321 58 l-108 0 0
428 c0 236 3 432 7 435 8 8 17 9 65 1z"/>
<path d="M1170 781 c0 -152 4 -261 9 -261 5 0 16 -3 25 -6 14 -5 16 15 16 185
0 105 3 191 8 191 4 0 102 -97 218 -217 l211 -217 26 17 26 17 3 270 c3 278 1
292 -35 252 -15 -16 -17 -48 -17 -240 0 -122 -4 -222 -9 -222 -5 0 -42 35 -82
79 -41 43 -147 153 -236 245 l-163 167 0 -260z"/>
</g>
</svg>
