<?xml version="1.0" standalone="no"?>
<!DOCTYPE svg PUBLIC "-//W3C//DTD SVG 20010904//EN"
 "http://www.w3.org/TR/2001/REC-SVG-20010904/DTD/svg10.dtd">
<svg version="1.0" xmlns="http://www.w3.org/2000/svg"
 width="289.000000pt" height="65.000000pt" viewBox="0 0 289.000000 65.000000"
 preserveAspectRatio="xMidYMid meet">

<g transform="translate(0.000000,65.000000) scale(0.100000,-0.100000)"
fill="#000000" stroke="none">
<path d="M2336 574 c-9 -8 -16 -19 -16 -24 0 -13 30 -40 45 -40 13 0 45 26 45
36 0 3 -5 14 -10 25 -13 23 -43 25 -64 3z"/>
<path d="M1989 573 c0 -5 0 -36 1 -70 1 -35 -2 -63 -7 -63 -4 1 -19 7 -33 15
-52 30 -115 12 -164 -45 -48 -58 -31 -163 33 -209 36 -26 116 -28 149 -5 20
14 22 14 22 0 0 -11 10 -16 30 -16 l30 0 0 200 0 200 -30 0 c-16 0 -30 -3 -31
-7z m-32 -183 c59 -54 21 -160 -57 -160 -36 0 -80 53 -80 95 0 72 86 113 137
65z"/>
<path d="M158 462 l-28 -3 0 -140 0 -139 35 0 35 0 0 93 c0 85 2 96 23 115 31
29 81 29 101 0 12 -16 16 -48 16 -116 l0 -93 33 3 c17 2 31 6 30 11 -2 4 -3
52 -3 107 0 95 -1 101 -27 130 -35 39 -88 49 -134 26 -36 -18 -53 -21 -44 -7
7 13 -5 17 -37 13z"/>
<path d="M542 454 c-92 -47 -108 -166 -32 -239 26 -25 40 -30 93 -33 50 -2 69
1 96 18 32 20 32 22 16 40 -16 18 -19 18 -50 3 -44 -21 -98 -11 -125 25 l-22
27 116 3 c112 3 116 3 116 25 -1 36 -36 104 -64 122 -38 25 -104 29 -144 9z
m127 -70 c11 -15 19 -30 16 -34 -6 -9 -92 -11 -133 -2 l-34 7 22 28 c17 22 29
27 65 27 35 0 48 -5 64 -26z"/>
<path d="M770 461 c0 -2 10 -18 23 -35 13 -17 35 -47 49 -66 l27 -35 -49 -65
c-27 -36 -50 -68 -50 -72 0 -5 15 -8 33 -8 27 0 37 7 67 51 l35 51 15 -23 c40
-62 62 -79 96 -79 l35 0 -47 63 c-26 34 -51 67 -55 72 -4 6 14 39 41 75 27 35
47 67 45 71 -2 3 -18 4 -35 1 -22 -3 -39 -16 -61 -48 -16 -24 -31 -44 -33 -44
-1 0 -17 20 -34 44 -25 35 -39 45 -67 48 -19 2 -35 2 -35 -1z"/>
<path d="M1150 457 c-52 -18 -80 -67 -80 -140 0 -56 2 -62 39 -98 36 -36 43
-39 94 -39 36 0 61 5 71 15 8 8 17 15 20 15 3 0 6 -7 6 -15 0 -10 10 -15 30
-15 l30 0 0 140 0 140 -36 0 c-21 0 -33 -4 -29 -10 8 -13 4 -13 -38 5 -43 18
-60 18 -107 2z m119 -73 c30 -38 28 -98 -4 -129 -33 -33 -70 -32 -106 4 -57
58 -26 151 51 151 30 0 43 -6 59 -26z"/>
<path d="M1530 454 c-22 -10 -36 -11 -38 -4 -2 5 -17 10 -33 10 l-29 0 0 -140
0 -140 35 0 35 0 0 95 c0 107 14 135 68 135 56 0 66 -18 70 -129 l4 -101 29 0
29 0 0 100 c0 114 -12 150 -60 175 -36 19 -65 19 -110 -1z"/>
<path d="M2240 463 c-8 -3 -23 -12 -32 -21 -16 -14 -18 -13 -18 1 0 12 -9 17
-30 17 l-30 0 0 -140 0 -140 30 0 30 0 0 80 c0 43 5 90 11 103 11 24 47 47 74
47 9 0 13 11 13 30 -1 30 -13 36 -48 23z"/>
<path d="M2533 455 c-52 -22 -75 -68 -70 -144 3 -58 6 -66 40 -97 31 -29 44
-34 85 -34 27 0 57 6 68 15 25 19 38 19 30 0 -4 -12 3 -15 29 -15 l35 0 0 140
0 140 -36 0 c-21 0 -33 -4 -29 -10 9 -14 -8 -12 -41 5 -36 18 -69 18 -111 0z
m126 -71 c30 -38 28 -98 -4 -129 -33 -33 -70 -32 -106 4 -57 58 -26 151 51
151 30 0 43 -6 59 -26z"/>
<path d="M2331 320 l-1 -140 35 0 35 0 0 140 0 140 -33 0 -34 0 -2 -140z"/>
</g>
</svg>
